<svg width="24" height="24" viewBox="0 0 24 24" fill="none" xmlns="http://www.w3.org/2000/svg">
<path d="M13.3876 11.9978L20.4188 3.61652C20.5367 3.47723 20.4376 3.26562 20.2554 3.26562H18.1179C17.992 3.26562 17.8715 3.32187 17.7885 3.4183L11.9894 10.3317L6.19025 3.4183C6.1099 3.32187 5.98936 3.26562 5.86079 3.26562H3.72329C3.54115 3.26562 3.44204 3.47723 3.5599 3.61652L10.5911 11.9978L3.5599 20.379C3.5335 20.4101 3.51656 20.448 3.51109 20.4884C3.50563 20.5288 3.51187 20.5699 3.52908 20.6069C3.54628 20.6438 3.57372 20.675 3.60815 20.6968C3.64257 20.7187 3.68254 20.7301 3.72329 20.7299H5.86079C5.98668 20.7299 6.10722 20.6737 6.19025 20.5772L11.9894 13.6638L17.7885 20.5772C17.8688 20.6737 17.9894 20.7299 18.1179 20.7299H20.2554C20.4376 20.7299 20.5367 20.5183 20.4188 20.379L13.3876 11.9978Z" fill="white"/>
</svg>
