<?xml version="1.0" encoding="utf-8"?>
<!-- Generator: Adobe Illustrator 23.0.1, SVG Export Plug-In . SVG Version: 6.00 Build 0)  -->
<svg version="1.1" id="Layer_1" xmlns="http://www.w3.org/2000/svg" xmlns:xlink="http://www.w3.org/1999/xlink" x="0px" y="0px"
	 viewBox="0 0 474.9 175.8" style="enable-background:new 0 0 474.9 175.8;" xml:space="preserve">
<style type="text/css">
	.st0{fill:#EB2533;}
</style>
<g>
	<g>
		<polygon class="st0" points="127.8,29 111.4,92.6 93.5,29 74.5,29 56.6,92.3 40.2,29 21.3,29 46.6,122.5 65.6,122.5 83.8,54 
			102.1,122.5 121.4,122.5 146.7,29 		"/>
		<path class="st0" d="M201.5,56.4c-0.6-0.6-3.8-6.7-10.6-9.3c-3.2-1.3-6.8-1.6-10.5-1.6c-10.6,0-19.6,3.8-26.4,11.2
			c-6.9,7.4-10.4,16.9-10.4,28.2c0,11.3,3.5,20.8,10.5,28.1c7,7.4,16.1,11.1,27.1,11.1c8.1,0,17.3-6,20.7-12.9v11.1H219V47.3h-17.6
			V56.4z M196.2,101.2c-3.6,4.2-8.4,6.3-14.5,6.3s-11-1.9-14.7-5.9c-3.8-4.1-5.6-9.5-5.6-16.6c0-6.9,1.9-12.3,5.7-16.6
			c3.7-4.1,8.5-6.1,14.4-6.1s10.7,1.9,14.6,6c3.9,4,5.8,9.5,5.8,16.7C201.8,91.5,200,96.8,196.2,101.2z"/>
		<path class="st0" d="M436.1,56.4c-0.6-0.6-3.8-6.7-10.6-9.3c-3.2-1.3-6.8-1.6-10.5-1.6c-10.6,0-19.6,3.8-26.4,11.2
			s-10.4,16.9-10.4,28.2c0,11.3,3.5,20.8,10.5,28.1c7,7.4,16.1,11.1,27.1,11.1c8.1,0,17.3-6,20.7-12.9v11.1h17.1V47.3h-17.6
			L436.1,56.4L436.1,56.4z M430.8,101.2c-3.6,4.2-8.4,6.3-14.5,6.3c-6.1,0-11-1.9-14.7-5.9c-3.8-4.1-5.6-9.5-5.6-16.6
			c0-6.9,1.9-12.3,5.7-16.6c3.7-4.1,8.5-6.1,14.4-6.1c5.9,0,10.7,1.9,14.6,6c3.9,4,5.8,9.5,5.8,16.7
			C436.4,91.5,434.6,96.8,430.8,101.2z"/>
		<path class="st0" d="M286.5,58.6c-0.6-0.6-2.4-8.2-10.6-11.4c-3.2-1.3-6.8-1.6-10.5-1.6c-10.6,0-19.6,3.8-26.4,11.2
			S228.7,73.7,228.7,85s3.5,20.8,10.5,28.1c7,7.4,16.1,11.1,27.1,11.1c8.1,0,15-2.5,20.7-7.5v5.8h17.1v-100h-17.6V58.6z
			 M281.3,101.2c-3.6,4.2-8.4,6.3-14.5,6.3s-11-1.9-14.7-5.9c-3.8-4.1-5.6-9.5-5.6-16.6c0-6.9,1.9-12.3,5.7-16.6
			c3.7-4.1,8.5-6.1,14.4-6.1s10.7,1.9,14.6,6c3.9,4,5.8,9.5,5.8,16.7C286.9,91.5,285.1,96.8,281.3,101.2z"/>
		<path class="st0" d="M328.1,17.9c-3.2,0-5.9,1.2-7.9,3.3s-3.1,4.8-3.1,7.8c0,3.2,1.1,5.8,3.1,7.9s4.9,3.3,7.9,3.3
			c3.2,0,5.9-1.2,8-3.3c2.1-2.1,3.2-4.9,3.2-7.9s-1.1-5.8-3.2-7.9S331.3,17.9,328.1,17.9z"/>
		<rect x="319.1" y="47.1" class="st0" width="17.7" height="75.5"/>
		<rect x="351.6" y="47.1" class="st0" width="17.7" height="75.5"/>
		<path class="st0" d="M360.5,17.9c-3.2,0-5.9,1.2-7.9,3.3s-3.1,4.8-3.1,7.8c0,3.2,1.1,5.8,3.1,7.9s4.9,3.3,7.9,3.3
			c3.2,0,5.9-1.2,8-3.3c2.1-2.1,3.2-4.9,3.2-7.9s-1.1-5.8-3.2-7.9C366.5,18.9,363.7,17.9,360.5,17.9z"/>
	</g>
	<g>
		<path class="st0" d="M351.1,157.9c-2.1,0-4.2-0.1-6.3-0.3c-24.6-2.7-38.7-20.8-39.2-21.6l5.1-3.9l-2.5,1.9l2.5-1.9
			c0.1,0.2,13.1,16.7,35,19.1c16.7,1.9,34.3-4.8,52.2-19.7l4,4.9C384.8,150.7,367.7,157.9,351.1,157.9z"/>
	</g>
</g>
</svg>
